<svg id="visual" viewBox="0 0 900 600" width="900" height="600" xmlns="http://www.w3.org/2000/svg" xmlns:xlink="http://www.w3.org/1999/xlink" version="1.1"><g stroke-width="1" stroke-linejoin="bevel"><path d="M513 301L582 382L596 296Z" fill="#081a28" stroke="#081a28"></path><path d="M513 301L515 390L582 382Z" fill="#205a7a" stroke="#205a7a"></path><path d="M596 296L587 215L513 301Z" fill="#277297" stroke="#277297"></path><path d="M685 388L693 316L596 296Z" fill="#0c2435" stroke="#0c2435"></path><path d="M596 296L711 204L587 215Z" fill="#205a7a" stroke="#205a7a"></path><path d="M595 483L685 388L582 382Z" fill="#0c2435" stroke="#0c2435"></path><path d="M582 382L685 388L596 296Z" fill="#19435d" stroke="#19435d"></path><path d="M587 215L499 201L513 301Z" fill="#277297" stroke="#277297"></path><path d="M513 301L411 392L515 390Z" fill="#205a7a" stroke="#205a7a"></path><path d="M515 390L595 483L582 382Z" fill="#112e42" stroke="#112e42"></path><path d="M383 289L411 392L513 301Z" fill="#1d4e6b" stroke="#1d4e6b"></path><path d="M515 390L481 519L595 483Z" fill="#0c2435" stroke="#0c2435"></path><path d="M499 201L383 289L513 301Z" fill="#00101c" stroke="#00101c"></path><path d="M411 392L481 519L515 390Z" fill="#19435d" stroke="#19435d"></path><path d="M805 300L711 204L693 316Z" fill="#205a7a" stroke="#205a7a"></path><path d="M693 316L711 204L596 296Z" fill="#297ea6" stroke="#297ea6"></path><path d="M587 215L492 116L499 201Z" fill="#246688" stroke="#246688"></path><path d="M595 483L706 481L685 388Z" fill="#205a7a" stroke="#205a7a"></path><path d="M808 395L805 300L693 316Z" fill="#081a28" stroke="#081a28"></path><path d="M591 600L706 481L595 483Z" fill="#081a28" stroke="#081a28"></path><path d="M606 101L492 116L587 215Z" fill="#081a28" stroke="#081a28"></path><path d="M499 201L384 186L383 289Z" fill="#297ea6" stroke="#297ea6"></path><path d="M492 116L384 186L499 201Z" fill="#19435d" stroke="#19435d"></path><path d="M411 392L396 508L481 519Z" fill="#246688" stroke="#246688"></path><path d="M314 393L396 508L411 392Z" fill="#1d4e6b" stroke="#1d4e6b"></path><path d="M711 204L606 101L587 215Z" fill="#15384f" stroke="#15384f"></path><path d="M290 186L314 310L383 289Z" fill="#0c2435" stroke="#0c2435"></path><path d="M383 289L314 310L411 392Z" fill="#15384f" stroke="#15384f"></path><path d="M314 310L314 393L411 392Z" fill="#0c2435" stroke="#0c2435"></path><path d="M808 395L693 316L685 388Z" fill="#205a7a" stroke="#205a7a"></path><path d="M706 481L808 395L685 388Z" fill="#081a28" stroke="#081a28"></path><path d="M503 600L591 600L481 519Z" fill="#297ea6" stroke="#297ea6"></path><path d="M481 519L591 600L595 483Z" fill="#081a28" stroke="#081a28"></path><path d="M706 481L811 491L808 395Z" fill="#297ea6" stroke="#297ea6"></path><path d="M782 107L701 105L711 204Z" fill="#0c2435" stroke="#0c2435"></path><path d="M711 204L701 105L606 101Z" fill="#246688" stroke="#246688"></path><path d="M405 600L503 600L481 519Z" fill="#246688" stroke="#246688"></path><path d="M805 300L802 213L711 204Z" fill="#112e42" stroke="#112e42"></path><path d="M492 116L395 103L384 186Z" fill="#15384f" stroke="#15384f"></path><path d="M384 186L290 186L383 289Z" fill="#277297" stroke="#277297"></path><path d="M483 0L395 103L492 116Z" fill="#0c2435" stroke="#0c2435"></path><path d="M718 600L811 491L706 481Z" fill="#1d4e6b" stroke="#1d4e6b"></path><path d="M303 119L290 186L384 186Z" fill="#00101c" stroke="#00101c"></path><path d="M314 310L212 402L314 393Z" fill="#15384f" stroke="#15384f"></path><path d="M297 514L405 600L396 508Z" fill="#15384f" stroke="#15384f"></path><path d="M396 508L405 600L481 519Z" fill="#112e42" stroke="#112e42"></path><path d="M591 600L718 600L706 481Z" fill="#1d4e6b" stroke="#1d4e6b"></path><path d="M212 402L297 514L314 393Z" fill="#297ea6" stroke="#297ea6"></path><path d="M314 393L297 514L396 508Z" fill="#246688" stroke="#246688"></path><path d="M802 213L782 107L711 204Z" fill="#112e42" stroke="#112e42"></path><path d="M707 0L583 0L606 101Z" fill="#1d4e6b" stroke="#1d4e6b"></path><path d="M395 103L303 119L384 186Z" fill="#0c2435" stroke="#0c2435"></path><path d="M707 0L606 101L701 105Z" fill="#1d4e6b" stroke="#1d4e6b"></path><path d="M606 101L583 0L492 116Z" fill="#297ea6" stroke="#297ea6"></path><path d="M395 103L318 0L303 119Z" fill="#297ea6" stroke="#297ea6"></path><path d="M583 0L483 0L492 116Z" fill="#205a7a" stroke="#205a7a"></path><path d="M808 395L900 317L805 300Z" fill="#15384f" stroke="#15384f"></path><path d="M805 300L900 317L802 213Z" fill="#1d4e6b" stroke="#1d4e6b"></path><path d="M802 213L900 189L782 107Z" fill="#0c2435" stroke="#0c2435"></path><path d="M900 384L900 317L808 395Z" fill="#1d4e6b" stroke="#1d4e6b"></path><path d="M811 491L900 384L808 395Z" fill="#0c2435" stroke="#0c2435"></path><path d="M183 281L212 402L314 310Z" fill="#112e42" stroke="#112e42"></path><path d="M183 281L314 310L290 186Z" fill="#1d4e6b" stroke="#1d4e6b"></path><path d="M718 600L806 600L811 491Z" fill="#112e42" stroke="#112e42"></path><path d="M811 491L900 500L900 384Z" fill="#277297" stroke="#277297"></path><path d="M782 107L707 0L701 105Z" fill="#00101c" stroke="#00101c"></path><path d="M900 317L900 189L802 213Z" fill="#19435d" stroke="#19435d"></path><path d="M782 107L818 0L707 0Z" fill="#00101c" stroke="#00101c"></path><path d="M189 212L183 281L290 186Z" fill="#081a28" stroke="#081a28"></path><path d="M483 0L380 0L395 103Z" fill="#19435d" stroke="#19435d"></path><path d="M208 89L189 212L290 186Z" fill="#19435d" stroke="#19435d"></path><path d="M806 600L900 500L811 491Z" fill="#0c2435" stroke="#0c2435"></path><path d="M297 514L280 600L405 600Z" fill="#246688" stroke="#246688"></path><path d="M203 504L280 600L297 514Z" fill="#00101c" stroke="#00101c"></path><path d="M208 89L290 186L303 119Z" fill="#246688" stroke="#246688"></path><path d="M113 493L203 504L212 402Z" fill="#00101c" stroke="#00101c"></path><path d="M212 402L203 504L297 514Z" fill="#112e42" stroke="#112e42"></path><path d="M380 0L318 0L395 103Z" fill="#19435d" stroke="#19435d"></path><path d="M900 189L900 98L782 107Z" fill="#205a7a" stroke="#205a7a"></path><path d="M900 98L818 0L782 107Z" fill="#15384f" stroke="#15384f"></path><path d="M318 0L208 89L303 119Z" fill="#112e42" stroke="#112e42"></path><path d="M806 600L900 600L900 500Z" fill="#297ea6" stroke="#297ea6"></path><path d="M113 493L186 600L203 504Z" fill="#277297" stroke="#277297"></path><path d="M203 504L186 600L280 600Z" fill="#19435d" stroke="#19435d"></path><path d="M183 281L101 380L212 402Z" fill="#297ea6" stroke="#297ea6"></path><path d="M84 309L101 380L183 281Z" fill="#1d4e6b" stroke="#1d4e6b"></path><path d="M106 209L183 281L189 212Z" fill="#246688" stroke="#246688"></path><path d="M108 110L106 209L189 212Z" fill="#00101c" stroke="#00101c"></path><path d="M101 380L113 493L212 402Z" fill="#00101c" stroke="#00101c"></path><path d="M106 209L84 309L183 281Z" fill="#081a28" stroke="#081a28"></path><path d="M0 497L104 600L113 493Z" fill="#112e42" stroke="#112e42"></path><path d="M318 0L215 0L208 89Z" fill="#297ea6" stroke="#297ea6"></path><path d="M208 89L108 110L189 212Z" fill="#205a7a" stroke="#205a7a"></path><path d="M900 98L900 0L818 0Z" fill="#19435d" stroke="#19435d"></path><path d="M117 0L108 110L208 89Z" fill="#15384f" stroke="#15384f"></path><path d="M0 208L0 302L84 309Z" fill="#1d4e6b" stroke="#1d4e6b"></path><path d="M0 418L113 493L101 380Z" fill="#246688" stroke="#246688"></path><path d="M113 493L104 600L186 600Z" fill="#112e42" stroke="#112e42"></path><path d="M0 208L84 309L106 209Z" fill="#246688" stroke="#246688"></path><path d="M215 0L117 0L208 89Z" fill="#081a28" stroke="#081a28"></path><path d="M0 208L106 209L0 114Z" fill="#00101c" stroke="#00101c"></path><path d="M84 309L0 302L101 380Z" fill="#112e42" stroke="#112e42"></path><path d="M0 302L0 418L101 380Z" fill="#246688" stroke="#246688"></path><path d="M0 114L106 209L108 110Z" fill="#0c2435" stroke="#0c2435"></path><path d="M0 418L0 497L113 493Z" fill="#15384f" stroke="#15384f"></path><path d="M0 0L0 114L108 110Z" fill="#19435d" stroke="#19435d"></path><path d="M0 497L0 600L104 600Z" fill="#277297" stroke="#277297"></path><path d="M117 0L0 0L108 110Z" fill="#1d4e6b" stroke="#1d4e6b"></path></g></svg>